<svg t="1592293390928" class="icon" viewBox="0 0 1024 1024" version="1.1" xmlns="http://www.w3.org/2000/svg" p-id="1980" width="200" height="200"><path d="M789.488 724.2H359.632c-94.584 0-117.384-60.072-134.056-126.992L100.408 66.76H61.96a33.376 33.376 0 0 1 0-66.76h64.864a33.384 33.384 0 0 1 32.488 25.72l131.136 555.744c17.456 70.056 31.208 75.984 69.184 75.984h429.848c12.752 0 51.48 0 69.168-75.88l63.304-252.2c10.008-39.864 8.672-70.768-3.784-87.048-9.424-12.304-27.312-18.792-53.224-19.248H344.64a33.368 33.368 0 0 1-33.376-33.384 33.36 33.36 0 0 1 33.376-33.376h520.936c47.88 0.864 83.216 16.152 105.608 45.44 25.824 33.736 31.04 82.144 15.52 143.88l-63.176 251.616c-25.688 110.4-95.024 126.952-134.04 126.952zM295.448 1024c-68.864 0-124.88-56.032-124.88-124.88 0-68.84 56.016-124.872 124.88-124.872 68.84 0 124.88 56.032 124.88 124.872 0 68.848-56.032 124.88-124.88 124.88z m0-183c-32.04 0-58.12 26.08-58.12 58.12 0 32.048 26.08 58.128 58.12 58.128s58.12-26.08 58.12-58.128c0-32.04-26.072-58.12-58.12-58.12zM827.104 1024c-68.84 0-124.872-56.032-124.872-124.88 0-68.84 56.032-124.872 124.872-124.872 68.848 0 124.88 56.032 124.88 124.872 0 68.848-56.032 124.88-124.88 124.88z m0-183c-32.04 0-58.12 26.08-58.12 58.12 0 32.048 26.08 58.128 58.12 58.128 32.048 0 58.128-26.08 58.128-58.128-0.008-32.04-26.08-58.12-58.128-58.12z" fill="#747474" p-id="1981"></path></svg>